<svg xmlns="http://www.w3.org/2000/svg" viewBox="0 0 419.58 399.97"><defs><style>.cls-1{fill:#fff;}.cls-2{stroke:#fff;stroke-width:3px;}.cls-2,.cls-3{stroke-miterlimit:10;}.cls-3{fill:#c6c6c6;stroke:#000;}</style></defs><title>others</title><g id="Layer_2" data-name="Layer 2"><g id="others"><path d="M37.92,235.05C31,234,24,238.6,19.65,245S9.83,259.28,7.82,267.11C3.76,283,.59,299.57,2.15,316c.93,9.79,7.11,20.09,14.17,25.54,3.53,2.72,8,4.21,10.38,8.26,3.17,5.36,3.12,15,8.7,15.43,5.19.37,6.7-8.22,10.67-12.13,4.48-4.42,12.72-.56,13.32,6.24.18,2.1-.24,4.28.29,6.29,1,3.82,5.73,5.43,8.33,2.83,2-2,2.4-5.46,3.79-8.11,3.79-7.26,13-6.25,20-3.84a176.38,176.38,0,0,1,34.73,16.38c4.72,2.89,9.61,6.33,11.94,11.91a9.24,9.24,0,0,0,1.91,3.5c1.62,1.42,4.09.5,5.37-1.32s1.67-4.25,2-6.57c4.64,2.44,11.3-1.3,14.58,3.22,2,2.76,1.38,7.21,3.37,10,2.1,2.92,6.84,2.1,8.12-1.4.64-1.76.57-4,1.84-5.21,1-1,2.42-.87,3.7-.74l17.48,1.78c-2.54,3.95.74,10.47,5,10.42s7.44-5.72,6.36-10.48l15.46-1.37c2.29-.2,5-.16,6.3,2.06.73,1.28.74,3,1.48,4.24,1.48,2.51,5.09,1.81,6.72-.57s1.82-5.63,1.93-8.67c8.78-3.35,17.45-7.79,24.31-15s8.62-17.51,8.33-28.24a16.89,16.89,0,0,0-1.23-6.44c-1.69-3.77-2.09-5.82-5.38-7.69-17.33-9.83-34.14-20.84-50.93-31.85l-12.25-8c-10.5-6.88-21.33-14.09-28.49-25.37-3.39-5.33-5.9-11.49-10.06-16-8.69-9.45-22.14-9.37-33.87-7-2.92.59-5.92,1.28-8.83.63a8.08,8.08,0,0,1-6.29-6.41c-.39-2.52.54-5.24-.25-7.63-1.09-3.31-4.88-4.2-7.85-3.39-8.68,2.37-13,13.33-18.05,21.84-5.48,9.16-14.15,16.91-23.72,16.23C54.13,258.51,37.92,235.05,37.92,235.05Z"/><path class="cls-1" d="M37.92,233.55c-11.06-1.09-17.81,7.78-23.21,16.06C7.17,261.18,4.16,273.65,2,287.18c-2,12.3-3.65,26.63,1,38.51A43.15,43.15,0,0,0,11,338.6c3.78,4.23,9.24,6.11,13,10.14,4,4.31,3.82,19,12.36,18,7.87-.88,9.41-20.5,19-12.16,4.35,3.78.9,9.63,4,13.87A6.73,6.73,0,0,0,67,370.88c4.83-1.82,4.34-8.17,7.32-11.54,4.22-4.8,11.85-3.06,17.11-1.34a157,157,0,0,1,23.11,9.89c6.38,3.3,13.82,6.81,18.85,12,2.43,2.53,3.08,5.43,4.92,8.17a4.75,4.75,0,0,0,4.32,2.42c4.78-.27,6-5.94,6.62-9.67l-1.85,1a15.09,15.09,0,0,0,6.34.95c4.21-.05,7.22.21,8.61,4.87,1.07,3.59,1.22,8.2,5.75,9.1a6.5,6.5,0,0,0,7.21-4.17c1.09-2.58-.27-3.89,4.09-4.85,1.38-.31,3.47.35,4.86.49l12.62,1.28-1.3-2.26c-2.24,4.48-.37,11.63,5.24,12.56,6.69,1.11,9.61-7,8.85-12.26l-1.45,1.9c5.3-.47,11.33-1.87,16.63-1.44s3.48,6,7.72,7.64c7.12,2.68,8.84-7.46,9-12l-1.1,1.45c11.1-4.31,23.65-10.6,29.44-21.62,5.12-9.74,6.45-23.95,1.27-33.85-2.76-5.28-9.5-7.56-14.34-10.46-7.21-4.3-14.32-8.77-21.38-13.3-13.07-8.39-26.24-16.73-39-25.57-6-4.17-11.85-8.74-16.57-14.37s-7.54-12.57-11.81-18.62c-6.92-9.81-18.1-12.87-29.65-11.92-7.36.6-21.08,6.14-21.6-5.45-.2-4.41.14-8.71-5.07-10.16-10.44-2.91-17.39,11-21.31,18.12s-8.57,14.29-16.07,18c-6.76,3.36-12.58,1.62-18.17-2.79-6.59-5.2-12.24-12-17-18.87-1.09-1.57-3.7-.08-2.59,1.51A111,111,0,0,0,48.35,250c5.34,5.46,12,11.56,20.22,10.74,11.41-1.14,19-11.46,24.13-20.67,2.85-5.12,5.54-11,10.15-14.76,4-3.27,10.24-4.92,11.13,2.32.36,2.93-.52,5.32,1.1,8,2.12,3.56,6.18,4.93,10.15,4.74,6.68-.32,13-2.51,19.79-2.13s13.55,2.68,18.32,7.84c5,5.36,7.42,12.58,11.69,18.45,7.12,9.78,17.18,16.61,27.16,23.17,13.28,8.72,26.52,17.5,40,25.95,7.1,4.46,14.38,8.6,21.53,13,7.63,4.67,8.1,13.44,7.33,21.71s-3.72,15.79-10,21.55c-6.13,5.6-13.62,9.32-21.3,12.31a1.57,1.57,0,0,0-1.1,1.45c-.07,1.58.29,4.27-.67,5.64q-5.57,4.9-6,.35l-.54-1.39a5.73,5.73,0,0,0-3.27-2.8c-2.33-.83-5-.31-7.37-.1l-12.56,1.11a1.53,1.53,0,0,0-1.45,1.9c.41,2.85-.78,8.7-4.92,8.58-3.94-.11-5.06-5.4-3.68-8.16a1.52,1.52,0,0,0-1.3-2.26l-11.65-1.18c-2.39-.24-5.14-.94-7.53-.62a4.77,4.77,0,0,0-4,2.59,18.08,18.08,0,0,0-.73,2.39c-1.5,4-4.69,6.48-7,.51-1.42-3.68-.89-7.7-5-9.65-4-1.88-8.6.11-12.7-1.6a1.5,1.5,0,0,0-1.85,1c-.12.77-.23,3.62-.86,4.14s-5.43.1-5.71-.11c-1.11-.8-2.24-4-3.32-5.23-3-3.44-6.9-5.87-10.75-8.17a175.54,175.54,0,0,0-31.79-15c-6.38-2.24-15-4.41-20.73.54a12.25,12.25,0,0,0-2.7,3.39c-1.12,2-1.64,6.51-3.55,7.81-6.89,4.67-5.5-8.89-7.22-12.12-2.57-4.83-9.21-7.42-13.88-3.94-2.7,2-4,5.38-5.65,8.17-1.07,1.77-2.68,4.84-5.31,4.1s-3.49-5.26-4.18-7.53c-.91-3-1.75-6-3.71-8.49-3-3.74-7.74-5.39-11.25-8.51-9.55-8.48-12.56-20.28-12.48-32.6.09-13.82,2.29-29.1,7-42.16,2.33-6.46,6.31-12.43,10.26-18,4.15-5.84,9.85-10.57,17.41-9.82C39.84,236.74,39.82,233.74,37.92,233.55Z"/><path class="cls-2" d="M301.9,58.29c-78.84,0-117.56,72.57-117.56,133.33,0,69.2,48.41,136.7,117.56,136.7,51.19,0,116.18-43.88,116.18-135C418.08,88.66,339.24,58.29,301.9,58.29Z"/><path class="cls-3" d="M235.88,182.4"/><path d="M78.55,211.12c2.6-5,8.08-6.67,13-8.13,13.86-4.13,27.23-10.21,40.55-16.28a3,3,0,0,0,1.64-1.32,3.93,3.93,0,0,0-.11-2.68c-5.11-17.74-13.45-35.34-11.53-53.91.65-6.29,2.47-12.33,4.08-18.39a276,276,0,0,0,6.47-31.9c.43-3,.74-6.31-.72-8.82-2.21-3.8-7.15-3.54-10.81-1.83a25,25,0,0,0-8.23,6.29,6.15,6.15,0,0,1-2.67,2.21c-2.45.65-4.24-2.64-5-5.42-4.69-17.11-2.38-35.73-5.11-53.4-.83-5.35-2.4-11.07-6.31-14-5.51-4.17-14.17.44-15.06,8A26.5,26.5,0,0,0,79,17.63l4.23,36.09q-3.26-16.66-7.55-33c-1.41-5.38-3-10.94-6.43-14.93S60,0,56,3.17c-3,2.43-4.22,7.07-3.95,11.33s1.75,8.25,3.15,12.2Q60.66,42,64.57,58L52.46,31.75c-2.22-4.8-4.61-9.82-8.6-12.66S33.78,16.62,31.39,21.3c-2.16,4.24-.45,9.62,1.29,14.12L47.85,74.64C43.19,71,40.6,64.76,37.77,59.09s-6.58-11.43-12-13a7.39,7.39,0,0,0-5.22.27c-2.93,1.39-4.63,5.14-4.89,8.8s.68,7.29,1.7,10.76c3.29,11.13,7.6,21.81,11.9,32.46,5,12.31,10,24.72,17,35.6,3.61,5.59,7.92,11.34,8.07,18.33.05,2.52-.46,5-.19,7.55.37,3.46,2.18,6.44,3.79,9.37a108.27,108.27,0,0,1,11.2,30.63c.68,3.33,1.29,6.89,3.29,9.41s6,3.25,7.73.51Z"/><path class="cls-1" d="M79.84,211.88c3.36-5.63,9.92-6.7,15.68-8.56,6.68-2.16,13.22-4.73,19.69-7.48,5.63-2.39,12.48-4.49,17.62-7.84,4-2.59,2.19-5.94.93-10-4.12-13.19-9.59-26.35-10.37-40.31-.79-14.26,4.88-28,7.72-41.79,1.19-5.76,2.27-11.58,3-17.42.53-4.12.82-9.24-3.08-11.93-2.7-1.86-6.24-1.66-9.21-.64a22.14,22.14,0,0,0-6.46,3.75c-1.55,1.23-4.59,5.87-6.87,4.62-2-1.12-2.71-7.1-3.1-9.14a101.78,101.78,0,0,1-1.48-11.46c-.56-7.12-.62-14.27-1-21.4-.44-9,0-23.74-8.11-29.89-6.53-5-15.55.13-17.35,7.44C76,15.84,78.09,23,78.79,29l2.89,24.69,2.95-.4c-2.5-12.64-5-25.57-8.92-37.86C73.46,8.39,68.27-1.43,59.21.17c-8.68,1.53-9.45,12.35-7.86,19.19,1.47,6.33,4.13,12.43,6.08,18.62,2.11,6.73,4,13.52,5.69,20.37l2.74-1.16c-5.06-11-9.31-23.06-15.74-33.27-3.44-5.46-10-10.68-16.59-6.93-8.25,4.67-3.45,15.84-.92,22.39L46.41,75l2.51-1.46c-6.6-5.69-8.56-14.49-13.47-21.42-3-4.3-8.1-9-13.88-7.7-15.51,3.45-3.11,30.33-.12,38.29,6.42,17.08,12.9,35,22.56,50.51,2,3.15,4.18,6.16,5.91,9.44,2.8,5.32,2.58,9.52,2.63,15.29.07,8,6.11,15.21,9.08,22.4a109,109,0,0,1,4.88,14.78c1,4,1.39,8.48,3.12,12.31,2.05,4.53,7.66,7.87,11.57,3.38a1.5,1.5,0,0,0-2.12-2.12l-1.59,1.34c-1.48,1.24.65,3.36,2.12,2.12l1.59-1.34-2.12-2.12c-3.9,4.47-6.85-2.52-7.57-4.95-.58-2-.87-4-1.31-6A112,112,0,0,0,66.94,186a110.84,110.84,0,0,0-4.64-11.51c-1.84-3.92-4.55-7.65-5.94-11.75-1.55-4.58,0-9.33-.95-14a29.94,29.94,0,0,0-3.68-9c-4.44-7.71-9.33-14.92-13.1-23-8-17.11-16-35.55-20.6-53.89-1.17-4.67-2.37-15.06,5-15.64,5.22-.41,9.2,5.21,11.49,9.08C38.5,63,40.8,70.52,46.79,75.7c1,.88,3.1.06,2.51-1.46l-9.65-25C38,45.12,36.42,41,34.82,36.81c-1.72-4.47-4.66-10.54-1.73-15,3.44-5.28,9.51-2.6,12.76,1.36,2.5,3,4.08,6.71,5.72,10.26Q57.44,46,63.28,58.72c.73,1.59,3.14.44,2.74-1.16C63.7,48.24,61,39,57.94,29.91c-1.69-5-4.06-10.09-4.35-15.41C53.33,9.8,55,3,60.89,3c10.42,0,12.83,16.07,14.7,23.53Q79,40.26,81.74,54.12c.32,1.63,3.14,1.29,2.95-.4-1.47-12.52-3.37-25.06-4.4-37.62C79.86,11,81.22,5.2,87,3.71c6.92-1.79,10,5.86,11.15,11.28,2.55,11.72,1.87,24,2.62,36a111.23,111.23,0,0,0,2.15,16.82c.67,3,1.51,7.9,4.64,9.58,2.19,1.17,3.94.26,5.62-1.23,3.74-3.31,8.74-9.61,14.68-7.76,6.67,2.08,2.7,14.5,1.86,19.24q-1.76,9.9-4.24,19.65c-2.9,11.4-6,22.11-4.74,34,1.19,10.87,4.83,21.24,8.24,31.57.94,2.85,2.71,6.45,3,9.43.37,4.1-4.36,4.89-7.55,6.32-6.83,3.07-13.7,6.07-20.71,8.72-8.6,3.25-21.26,4.45-26.4,13.08A1.5,1.5,0,0,0,79.84,211.88Z"/><path d="M117.16,223.57a104.89,104.89,0,0,1,23.52,7.37c5.87,2.6,12.71,2,18,5.86.89.64,1.82,1.4,2.86,1.29,1.68-.17,7.15-9,7.65-10.89,1.86-7.06,4.76-13.41,6.25-20.59,2.07-10,3.12-13.32,4.17-23,.29-2.69.54-12,0-10.9,8.65-40.8,21-71.84,35.35-110.39.8-2.14,1.6-4.58.85-6.75-.52-1.51-3.76-9.59-7-11.22-7.29-3.63-7.7-.29-9.37,0-2.91.5-4.93,3.88-6.1,7l-13.8,37.21Q187.31,63,192.82,36.5c.53-2.54,1-5.24.32-7.71-1.25-4.3-5.53-6.1-9.28-7.34-2.25-.75-4.89-1.41-6.74.25a9.17,9.17,0,0,0-2.14,4.2L160.12,74l7.38-45.35a8.61,8.61,0,0,0,0-4.23,6.9,6.9,0,0,0-3-3.18c-4.87-3.28-11.73-6.27-15.47-1.38-1.41,1.84-1.9,4.37-2.34,6.79l-9.26,50.59,1.73-23.16c.41-5.55,2.43-18.12-1.17-21.8-3.36-3.45-11.09-3.26-14.58,0s-5,15.1-5.83,20.21-.92,10.39-1.88,15.48c-1.78,9.41-2.71,11.54-6.87,35.76-12.59-10-19.64-24.22-34.37-24.22-4.17,0-7.16,11.1-7.29,15.74-.1,3.37,3.07,11,5.21,13.32,12.5,13.32,15.62,14.53,24,29.06,4.66,8.12,7.89,9.56,6.25,18.16-2.08,10.9-1.53,15.62-2.08,18.16-2.46,11.33-4.45,14.43-6.91,25.75-.59,2.71-1.17,5.6-.43,8.26.82,3,3.09,5,5.24,6.84C104,219.63,117.16,223.57,117.16,223.57Z"/><path class="cls-1" d="M117.06,223.94a119,119,0,0,1,18.38,5.22,156.42,156.42,0,0,0,16.67,5.15,22.24,22.24,0,0,1,5.74,2.38c1,.6,2.28,2,3.63,1.77a2.82,2.82,0,0,0,1.16-.53c2.6-1.42,5-6.32,6.17-8.84,2.3-4.76,3.57-10.35,5.16-15.41a173.38,173.38,0,0,0,4.34-18.56,102.15,102.15,0,0,0,1.87-13.77c.14-2.38,1-6.66-.12-8.9a.38.38,0,0,0-.59-.08c2.41-2.18,2.7-9.3,3.45-12.41q1.71-7,3.63-14c2.32-8.42,4.87-16.76,7.6-25.05,5.51-16.72,11.73-33.19,17.91-49.66,2.14-5.7,5.75-11.51,3.41-17.55-1.6-4.14-3.85-8.61-8.14-10.36-10.92-4.46-15,9.81-17.81,17.31-.94,2.54-9.67,26.07-9.36,26.16.78.23,7-24.1,7.65-26.7,2.16-8.64,5-17.72,5.92-26.6.55-5.5-1.88-9-6.83-11.26-4-1.79-9-3.46-11.39,1.23-1.68,3.23-2.39,7.23-3.46,10.69l-4.57,14.79-4,12.94-2,6.47c-1,3.09-1,5.73-.19.82l4.81-29.57c.82-5,4.38-13.67-.15-17.76-3.22-2.91-9.54-6.1-14-4.55-5.73,2-5.81,10.25-6.69,15.11l-5.34,29.19c-.27,1.49-2.7,13.59-2.23,13.68s1.17-12,1.27-13.45c.51-6.82,1.54-13.76,1.51-20.6,0-4-.26-8.49-4.12-10.58a12.55,12.55,0,0,0-12.33.7c-3.9,2.8-4.7,9.12-5.52,13.45-1.35,7.1-1.77,14.27-2.87,21.39-1.27,8.23-3.36,16.36-4.87,24.55q-.46,2.5-.91,5c-.22,1.23-.21,5.33-1.05,6-1.54,1.19-2.5-.59-3.77-1.77-1.47-1.36-2.88-2.78-4.28-4.21C96.26,91.11,91.94,86,86.41,82.64c-3.22-2-9.31-4.9-13.15-3.24s-5.11,7.88-5.83,11.3c-2.5,11.78,6.11,19.66,13.62,27.33a87.86,87.86,0,0,1,11.4,13.87c2,3.1,3.74,6.35,5.74,9.44,2.17,3.36,4.5,6.47,4.43,10.67-.11,6.24-1.75,12.72-2.2,19s-2.71,12.2-4.48,18.11-5.33,14.32-2.62,20.32c2.18,4.82,7.71,7.95,12.26,10.09a85.47,85.47,0,0,0,11.49,4.39c.46.14.66-.58.2-.72A73.69,73.69,0,0,1,103,217.42c-3.75-2.08-8.3-5.24-9.53-9.57-1.36-4.81,1.07-11.24,2.4-16,1.74-6.16,4.22-12.33,5.08-18.7s1.5-12.68,2.21-19c.69-6-2.14-9.68-5.21-14.59-3.44-5.52-6.54-11.15-10.78-16.11-8.75-10.23-22.74-19-18.66-34.36a26.45,26.45,0,0,1,2-5.5c1.59-3,3-4,6.59-3.61,4.68.45,8.92,2.91,12.5,5.83,6.77,5.52,12.13,12.54,18.91,18.07.19.16.57.14.63-.17,1.61-9.33,3.31-18.64,5.27-27.9,1.88-8.87,2.57-17.82,4-26.76.79-4.8,1.27-11.33,4.2-15.4,2.4-3.34,7.26-4.25,11.1-3.29,4.23,1.06,5.54,4.33,5.84,8.25.37,4.82-.36,9.67-.78,14.47-.71,8-1.2,16-1.8,24,0,.42.66.52.74.1l5.34-29.19L146,32.56c.92-5,1-12.86,6.81-14.53,6.32-1.8,14.11,4,14.35,10.49.17,4.66-1.65,10.17-2.41,14.79l-5,30.56a.38.38,0,0,0,.72.2l9.14-29.59,4.57-14.79c.33-1.06.53-2.78,1.14-3.7,1.33-2,6.14-4.62,8.41-4.19A14.35,14.35,0,0,1,190.14,25c5,4.69,2.19,12.12.91,17.94q-1.65,7.52-3.49,15-3.79,15.36-8.37,30.51c-.14.47.56.64.72.2l9.66-26c2.5-6.75,4.17-15.89,11.49-18.8,7-2.78,12.21,4.9,14.05,10.82,1.31,4.21-.67,8.11-2.12,12L208.46,78.7c-11.52,30.78-22.28,61.72-29.17,93.92a.38.38,0,0,0,.63.36c-1.33,1.2-.4,7.42-.53,9.24a107.28,107.28,0,0,1-2,13.93c-2.19,10.69-4.48,22.23-9,32.2a33,33,0,0,1-2.5,4.28c-1.49,2.28-2.27,4.23-5.07,4.06-2.47-.14-4.56-1.91-6.93-2.68-2.52-.82-5.15-1.21-7.72-1.8-4.47-1-8.55-3.14-12.86-4.68a123.75,123.75,0,0,0-16-4.33C116.79,223.11,116.59,223.84,117.06,223.94Z"/></g></g></svg>