<svg xmlns="http://www.w3.org/2000/svg" viewBox="0 0 402.92 330.81"><defs><style>.cls-1{fill:#fff;}.cls-2{stroke:#fff;stroke-width:3px;}.cls-2,.cls-3{stroke-miterlimit:10;}.cls-3{fill:#c6c6c6;stroke:#000;}</style></defs><title>others</title><g id="Layer_2" data-name="Layer 2"><g id="Layer_7" data-name="Layer 7"><path d="M36.37,194.35c-6.69-.88-13.32,2.93-17.54,8.19S9.4,214.36,7.48,220.82C3.57,233.94.53,247.63,2,261.23c.89,8.08,6.83,16.59,13.6,21.09,3.39,2.25,7.67,3.48,10,6.82,3,4.42,3,12.41,8.36,12.74,5,.31,6.44-6.79,10.24-10,4.3-3.65,12.22-.46,12.79,5.15.18,1.73-.23,3.53.27,5.2a5.22,5.22,0,0,0,8,2.34c1.94-1.67,2.31-4.51,3.64-6.7,3.64-6,12.5-5.16,19.23-3.18a183,183,0,0,1,33.35,13.53c4.54,2.38,9.23,5.22,11.47,9.83a7.39,7.39,0,0,0,1.83,2.89c1.55,1.17,3.93.41,5.16-1.09a11.51,11.51,0,0,0,1.95-5.43c4.45,2,10.85-1.08,14,2.66,1.92,2.28,1.32,6,3.24,8.24s6.57,1.74,7.79-1.16c.61-1.45.55-3.3,1.76-4.31a4.84,4.84,0,0,1,3.55-.61L189,320.72c-2.44,3.26.71,8.65,4.78,8.6s7.15-4.72,6.11-8.66l14.84-1.13c2.2-.17,4.83-.13,6,1.7.7,1.05.71,2.46,1.42,3.5,1.42,2.07,4.89,1.49,6.46-.47s1.75-4.65,1.85-7.16c8.43-2.76,16.75-6.44,23.34-12.38s8.28-14.46,8-23.33a12.26,12.26,0,0,0-1.19-5.31c-1.63-3.11-2-4.81-5.16-6.35-16.64-8.11-32.78-17.21-48.9-26.3l-11.76-6.63c-10.09-5.68-20.48-11.64-27.36-20.95-3.25-4.4-5.66-9.49-9.66-13.23-8.35-7.8-21.26-7.74-32.52-5.79-2.81.49-5.68,1.06-8.48.52s-5.54-2.49-6-5.29c-.37-2.08.52-4.33-.24-6.3-1-2.74-4.69-3.47-7.54-2.8-8.34,2-12.44,11-17.33,18-5.26,7.56-13.59,14-22.78,13.4C51.95,213.72,36.37,194.35,36.37,194.35Z"/><path class="cls-1" d="M36.37,192.85C25.92,192,19.25,199.24,13.49,207c-7.18,9.64-10.11,20.81-12.06,32.56-1.66,10-2.78,21.58,1.94,31a35.06,35.06,0,0,0,8.84,11.13c3.9,3.23,10.06,4.66,12.66,9.2s3.4,14.33,11,12.34c2.62-.69,4.19-3,5.6-5.15,1.24-1.87,2.38-4.37,4.43-5.5,3.36-1.84,8.34.12,9.47,3.81s-.73,7.21,3.11,9.67a6.74,6.74,0,0,0,7.87-.38c3.53-3,2.77-8,7.57-10s10.75-.43,15.57,1A176,176,0,0,1,111,304.77c5.76,2.61,12.46,5.25,17.18,9.58,2.79,2.56,4.08,8.84,8.73,8.65,4.3-.17,5.76-4.71,6.42-8.17l-1.85,1a18.3,18.3,0,0,0,6.6.78c4.4-.05,6.83,1.1,8.11,5.59.91,3.18,2.42,5.88,6.08,6s4.94-2,6.44-4.85c2-3.77,5.16-2.53,9.1-2.18l11.19,1-1.3-2.26a7.34,7.34,0,0,0,5,10.74c6,1,9.46-5.33,8.64-10.44l-1.45,1.9,7.42-.57c2.43-.19,5.67-1,8.1-.6,4.35.76,4.39,5.21,8,6.34,6.3,2,8.34-5.73,8.58-10.23l-1.1,1.45c10.51-3.52,23.23-8.64,28.86-18.92,4.36-8,5.58-19.76.47-27.62-2.69-4.14-8.36-5.71-12.54-7.85-6.82-3.49-13.57-7.11-20.28-10.8-12.59-6.92-25.21-13.87-37.59-21.15-6.06-3.56-12-7.42-17-12.44C168.13,215,165.35,209,161.11,204c-7-8.35-17.93-10.3-28.3-9.56-6.29.45-19,5.28-20.62-3.92-.43-2.38.62-4.33-1-6.53a6.87,6.87,0,0,0-4-2.48c-9.09-2.25-15.74,7.8-19.83,14.14C80,207,68.15,218.37,54.41,209.38c-6.45-4.22-12.14-10.1-17-16.09-1.21-1.5-3.33.63-2.12,2.12,7.11,8.79,18.49,21.82,31,20.37,10-1.16,17.34-8.85,22.55-16.89,2.87-4.43,5.65-9.53,10.15-12.54,3.77-2.53,8.86-3.84,10.29,2.52.57,2.54-.34,4.17,1.34,6.45,2.41,3.27,6.63,3.95,10.41,3.64,6-.48,11.76-1.93,17.85-1.69,5.58.22,11.28,1.49,15.88,4.79,5.61,4,8.32,10.74,12.52,16,7.06,8.84,17.08,14.55,26.77,20,12.26,6.92,24.49,13.89,36.86,20.6,6.73,3.65,13.51,7.22,20.37,10.63,3.35,1.67,5.76,2.79,7.43,6.25s1.78,6.77,1.56,10.46c-.44,7.36-3,13.89-8.76,18.7-6.21,5.2-13.83,8.36-21.43,10.91a1.56,1.56,0,0,0-1.1,1.45,13.3,13.3,0,0,1-.29,2.82q0,4.08-6,2.06c-.4-.41-.27-1.31-.79-1.65-1.54-1-2.1-1.91-4.1-2.24-5.58-.94-12.35.65-18,1.08a1.53,1.53,0,0,0-1.45,1.9c.43,2.68-1.26,6.83-4.66,6.76-3-.06-4.95-3.76-3.48-6.35a1.52,1.52,0,0,0-1.3-2.26l-10.26-.9c-2.77-.24-6.26-1.15-9-.49a4.52,4.52,0,0,0-2.83,1.86c-1.75,2.41-1.19,6.94-5.49,4.25-2.92-1.83-2-3.56-3.49-6.38a6.74,6.74,0,0,0-3.12-3.13c-3.9-1.87-8.5,0-12.53-1.46a1.51,1.51,0,0,0-1.85,1,10.6,10.6,0,0,1-.64,2.87l-5.07,1.46a13.54,13.54,0,0,0-.87-1.72,37,37,0,0,0-3-3.87c-3.14-3.07-7.14-5.1-11-7.07A185.5,185.5,0,0,0,92,294.3c-6.15-1.95-13.78-4.22-20-1.14-2.78,1.38-4.25,3.53-5.5,6.3-1.11,2.45-3.9,6.67-7.07,3.53-1.5-1.49-.63-6.23-1.59-8.46a10.09,10.09,0,0,0-12.15-5.2c-2.37.85-3.9,2.77-5.29,4.77-1,1.49-1.9,3.49-3.25,4.75-3.22,3-5.68.5-7-2.71-1.06-2.58-1.65-5.41-3.26-7.74-2-2.91-5.16-4.32-8.15-6-9.64-5.34-15.14-14.93-15.55-25.82a98,98,0,0,1,6.23-36.86c2.22-5.92,6.44-11.35,10.47-16.13,4.22-5,9.78-8.27,16.48-7.75C38.3,196,38.29,193,36.37,192.85Z"/><path class="cls-2" d="M289.86,48.37C214.16,48.37,177,108.3,177,158.48c0,57.14,46.48,112.89,112.89,112.89,49.16,0,111.56-36.24,111.56-111.5C401.42,73.46,325.72,48.37,289.86,48.37Z"/><path class="cls-3" d="M226.47,150.87"/><path d="M75.39,174.58c2.5-4.15,7.76-5.51,12.46-6.71,13.31-3.41,26.15-8.44,38.94-13.45a2.13,2.13,0,0,0,1.47-3.3c-4.91-14.65-12.91-29.18-11.07-44.52.63-5.2,2.38-10.18,3.92-15.19a200.16,200.16,0,0,0,6.21-26.35c.41-2.47.71-5.21-.69-7.28-2.12-3.14-6.87-2.93-10.38-1.51a24,24,0,0,0-7.91,5.19,5.81,5.81,0,0,1-2.56,1.82c-2.36.54-4.07-2.18-4.81-4.48-4.5-14.13-2.29-29.51-4.91-44.1-.79-4.42-2.3-9.14-6.06-11.59C84.72-.33,76.4,3.48,75.55,9.73a18.86,18.86,0,0,0,.23,5.06L79.85,44.6q-3.13-13.76-7.25-27.27C71.24,12.89,69.7,8.3,66.42,5S57.59.21,53.78,2.86c-2.9,2-4,5.84-3.79,9.35S51.67,19,53,22.28A243.87,243.87,0,0,1,62,48.1L50.34,26.45c-2.13-4-4.42-8.11-8.26-10.46s-9.68-2-12,1.83c-2.08,3.5-.43,7.95,1.24,11.66L45.92,61.87c-4.48-3-7-8.16-9.68-12.84S29.92,39.59,24.66,38.3a8.17,8.17,0,0,0-5,.22c-2.81,1.15-4.44,4.24-4.69,7.27s.65,6,1.64,8.89c3.15,9.19,7.3,18,11.43,26.8,4.78,10.17,9.6,20.41,16.34,29.4,3.46,4.62,7.61,9.37,7.75,15.14.05,2.08-.44,4.17-.18,6.23.36,2.85,2.09,5.32,3.64,7.74a81.85,81.85,0,0,1,10.75,25.3c.65,2.75,1.24,5.69,3.16,7.77s5.73,2.69,7.43.42Z"/><path class="cls-1" d="M76.69,175.34c3.37-4.8,9.94-5.53,15.18-7,6-1.68,11.94-3.66,17.81-5.79,5.29-1.92,10.54-3.94,15.77-6,2.48-1,4.71-1.64,4.54-4.7-.14-2.52-1.82-5.51-2.72-7.88-1.07-2.82-2.18-5.63-3.24-8.45a92.05,92.05,0,0,1-5-17.08c-2.13-13,3.29-24.56,6.38-36.87,1.44-5.72,3-11.72,3.57-17.6.29-3.07.17-6.27-2.4-8.4s-5.94-2.07-8.89-1.32a20.94,20.94,0,0,0-5.06,2.11c-2.44,1.37-4.53,4.21-7.33,4s-2.61-1.06-3.39-3.67c-.34-1.12-.6-2.29-.84-3.44a78.14,78.14,0,0,1-1.39-10.11c-.48-5.94-.52-11.9-.91-17.84-.5-7.52-.73-19-8-23.5-5.67-3.53-14-.41-16.22,5.83-1.69,4.77.27,11.09.93,15.93L78.4,45l2.89-.8c-2.49-10.8-4.89-22.11-9-32.43C69.72,5.38,64.23-1.23,56.51.2c-7.39,1.36-9,9.61-7.37,15.86,1.33,5.18,3.89,10.1,5.73,15.12,2.1,5.7,4,11.49,5.65,17.33l2.74-1.16c-4.86-9-9.09-19.15-15.12-27.47-3.53-4.88-9.59-8.75-15.69-6C25.62,17,27.69,24.8,30.05,30.24c4.71,10.86,9.71,21.59,14.57,32.38l2.05-2.05c-8.36-6.25-12.12-26.26-25.79-23.93-14.31,2.44-4,23.57-1,30.67C26.19,81.92,32.74,97.24,42,110.21c2,2.86,4.37,5.54,6.16,8.57,2.61,4.42,1.95,7.95,2.22,12.7.35,6.17,5.48,11.43,8.16,16.77A79.88,79.88,0,0,1,64,162.34c.91,3.22,1.31,6.81,3,9.75,2.3,4,7.35,5.87,11,2.44,1.21-1.14-.41-3.37-1.82-2.36l-1.53,1.11c-1.55,1.12-.05,3.72,1.51,2.59l1.53-1.11-1.82-2.36c-5.9,5.57-8.2-8.23-8.95-10.87a84.45,84.45,0,0,0-3.44-9.76,82.32,82.32,0,0,0-4.79-9.61c-1.67-2.86-4.16-5.68-5-8.93-.92-3.49.35-7.13-.55-10.68a23.82,23.82,0,0,0-3.63-7.31c-4.39-6.47-9-12.46-12.73-19.39S29.87,82,26.62,74.95c-3.48-7.52-7.26-15.25-9.4-23.28-1.63-6.11.3-15.57,9.39-11,3.53,1.76,6,5.26,7.94,8.53,3.12,5.17,5.66,10.32,10.6,14,1.34,1,2.59-.86,2.05-2.05L37.5,39.53c-2.41-5.36-12-20.38-2.73-23.15,7.77-2.32,12.21,7,15.17,12.5l10.73,20a1.51,1.51,0,0,0,2.74-1.16c-2.2-7.59-4.7-15.08-7.6-22.44-2.33-5.91-9.45-20.94,2-22.16,9.49-1,12.42,11.37,14.44,18.23,2.3,7.82,4.34,15.72,6.17,23.66.45,1.93,3.15,1.05,2.89-.8l-2-14.9c-.79-5.77-2.42-12.07-2.3-17.88A8.42,8.42,0,0,1,87.51,3.6C92.59,5.07,94,11.46,94.77,16c1.71,10.14,1.1,20.51,2.26,30.71.53,4.73,1,16.71,7.24,18.06,2.75.6,4.46-1.74,6.31-3.3,4.78-4,15.49-8.71,15.44,1.9,0,4.73-1.72,10-2.8,14.6-1.31,5.54-2.91,11-4.6,16.4-2.67,8.63-4,16.77-2.32,25.74,1.79,9.74,6,18.79,9.33,28,.07.18,1.31,2.91,1.18,3.38-.54,2-4,2.86-5.66,3.51q-3.93,1.53-7.88,3c-5.56,2.08-11.15,4.07-16.82,5.83-7.51,2.33-17.48,3-22.36,10C73,175.41,75.58,176.91,76.69,175.34Z"/><path d="M112.47,184.87A112.83,112.83,0,0,1,135.06,191c5.64,2.15,12.2,1.65,17.33,4.84a4.75,4.75,0,0,0,2.75,1.07c1.62-.14,6.87-7.44,7.34-9,1.79-5.83,4.57-11.07,6-17,2-8.22,3-11,4-19,.28-2.22.52-9.92,0-9,8.31-33.7,20.12-59.33,33.94-91.16.77-1.77,1.53-3.78.81-5.57-.5-1.25-3.61-7.92-6.76-9.26-7-3-7.39-.24-9,0-2.8.41-4.73,3.21-5.85,5.8L172.37,73.4a444.68,444.68,0,0,0,12.75-43c.51-2.1,1-4.33.3-6.37-1.2-3.55-5.31-5-8.91-6.06-2.16-.62-4.69-1.17-6.47.2A7.26,7.26,0,0,0,168,21.62l-14.27,39.7,7.09-37.45a6.15,6.15,0,0,0,0-3.49,6.16,6.16,0,0,0-2.86-2.63c-4.67-2.71-11.26-5.18-14.85-1.14-1.35,1.52-1.82,3.61-2.25,5.6L131.93,64l1.66-19.13c.4-4.58,2.33-15-1.12-18-3.23-2.85-10.64-2.7-14,0s-4.75,12.47-5.6,16.69-.88,8.58-1.81,12.78c-1.71,7.77-2.6,9.53-6.6,29.53-12.09-8.24-18.86-20-33-20-4,0-6.87,9.17-7,13-.09,2.78,2.95,9.12,5,11,12,11,15,12,23,24,4.47,6.71,7.58,7.89,6,15-2,9-1.47,12.9-2,15-2.36,9.36-4.27,11.91-6.64,21.27-.57,2.24-1.13,4.63-.42,6.82.79,2.44,3,4.12,5,5.65C99.86,181.61,112.47,184.87,112.47,184.87Z"/><path class="cls-1" d="M112.37,185.23c10.18,1.86,19.71,6,29.81,7.83a40.2,40.2,0,0,1,10,3.06c.93.42,1.9,1.3,3,1.11,2.07-.35,3.86-3.48,5-5,2.37-3.22,3.31-6.47,4.76-10.2a141.18,141.18,0,0,0,5.44-17.4,90,90,0,0,0,2.49-13.41c.23-2.5.86-6.07,0-8.5a.38.38,0,0,0-.55-.22c2-1,3-9.15,3.53-11.15q1.59-5.58,3.37-11.1c2.29-7.13,4.82-14.17,7.51-21.16,5.81-15.06,12.37-29.8,18.81-44.59,1.75-4,3-6.71.89-10.76-1.92-3.71-4.08-6.86-8.23-8.06-9.62-2.78-13.48,8-16.48,15l-5.07,11.75-2.34,5.42c-.34.79-2.3,5.49-.73,3.06,2-3.05,2.71-8,3.81-11.55q2-6.24,3.75-12.54,1.53-5.4,2.92-10.84c.82-3.21,2.34-7,2-10.35-.41-3.94-3.63-5.95-7.06-7.22-3.24-1.2-7.76-2.7-10.24.59-1.64,2.17-2.23,5.48-3.13,8l-4.54,12.63-4.22,11.73L155,56.71c-.66,1.84-1.08,4.41-.19,1,2-7.93,3.08-16.29,4.61-24.34.83-4.37,4.21-11.77-.11-15.17-3.11-2.44-8.52-4.65-12.52-3.92-5.25,1-6,6.27-6.91,10.72L134.6,49.65c-.33,1.57-3.48,11.42-2.63,12.34.64.69.79-3.27.83-3.74l.58-6.69c.5-5.77,1.56-11.71,1.47-17.51,0-3.36-.43-6.71-3.61-8.42a13.35,13.35,0,0,0-12.05.29c-3.29,2-4.3,6.4-5.15,9.86-1.5,6.16-1.94,12.41-3,18.64-1.23,7.26-3.41,14.4-4.94,21.6q-.47,2.21-.92,4.42c-.52,2.51-.29,4.72-3,3.3-2.88-1.52-5.48-4.52-7.9-6.68-4-3.6-8.2-7.37-13.22-9.56-3-1.31-8.45-3.24-11.58-1.33-2.89,1.77-4.24,6.43-4.92,9.45-2.21,9.84,6.63,16.34,13.1,22A76.76,76.76,0,0,1,88,108.28c2.14,2.77,4,5.72,6.08,8.53,1.88,2.53,4,4.79,4.32,8.06.32,3.46-1,7.11-1.5,10.55-.29,2.16-.32,4.33-.57,6.48-.66,5.81-3.27,11.32-5.07,16.85-1.61,5-4.4,11.39-.67,16,2.77,3.43,7.23,5.45,11.22,7a90.86,90.86,0,0,0,10.54,3.44.38.38,0,0,0,.2-.72,86.64,86.64,0,0,1-11.69-3.92,27.31,27.31,0,0,1-8.6-5.19c-4.43-4.31-2-11.28-.27-16.46s4.21-10.54,5-16c.74-5.14,1.53-10.42,2.12-15.57.63-5.46-2.89-8.72-5.83-12.92A88.79,88.79,0,0,0,83.48,102c-8-8-22.07-15.43-17.43-28.78A14.83,14.83,0,0,1,69,67.63c2.11-2.1,5.42-1.36,8-.72a28.89,28.89,0,0,1,10.42,5.35c5.83,4.4,10.85,9.73,16.84,13.94a.38.38,0,0,0,.55-.22c1.53-7.62,3.13-15.21,5-22.76s2.53-14.93,4-22.43c.75-3.93,1.34-9.16,3.85-12.4,2.11-2.73,6-3.45,9.23-3.16,4.26.38,6.81,2.8,7.19,7,.36,4.06-.38,8.16-.78,12.18-.65,6.51-1.14,13-1.7,19.56a.38.38,0,0,0,.74.1l5.25-24.69,2.63-12.34c1.07-5,1.57-12.46,8.59-12.19,5.26.2,10.83,3.31,11.68,8.9.28,1.81-.89,4.72-1.24,6.55L158,36.88l-4.61,24.34a.38.38,0,0,0,.72.2l9.08-25.27c1.47-4.09,2.56-8.79,4.54-12.63,3.11-6,8.85-6.42,14-3.16,5.65,3.6,3.07,10.13,1.73,15.36q-1.62,6.34-3.43,12.64-3.61,12.59-8,24.94c-.14.4.52.68.69.29L182,51.9c1.47-3.42,2.7-7.09,4.52-10.34a11.76,11.76,0,0,1,6.19-4.89c6-2.47,10.52,2.46,13.09,7.43,3.17,6.12-3.47,15.9-6,21.78-10.9,25.06-21.09,50.31-27.72,76.89a.38.38,0,0,0,.55.42c-.84.43-.39,6.92-.5,8a87.21,87.21,0,0,1-2.3,12.54,120.71,120.71,0,0,1-4.29,14.72c-1.55,4-2.65,8.49-5.09,12.07-.91,1.34-1.91,3.15-3.21,4.12-2.14,1.61-3.85.76-6.22,0-4.73-1.54-9.59-2.1-14.33-3.53-8.1-2.44-15.77-5.08-24.14-6.61C112.1,184.42,111.9,185.14,112.37,185.23Z"/></g></g></svg>