<svg xmlns="http://www.w3.org/2000/svg" viewBox="0 0 336.73 458.56"><defs><style>.cls-1{fill:#f3f3f3;}.cls-2{font-size:70.67px;font-family:MyriadPro-Regular, Myriad Pro;}.cls-3{letter-spacing:-0.01em;}</style></defs><title>other</title><g id="Layer_2" data-name="Layer 2"><g id="Layer_13" data-name="Layer 13"><path class="cls-1" d="M266.44,41.25l-.61-.9a485.71,485.71,0,0,0-66.46,9.49c-5.58,1.19-11.3,2.56-15.92,5.91-8.92,6.46-11.56,18.66-11.24,29.66s-6.09,89-4.65,107c.86,10.76,4.77,59.74,7.49,73.24,1.06,5.26.33,29-.8,34.75-5.23,26.72-1.06,42.64,1,78,1.27,21.92,5.06,41.1,5,42-1,14,7.52,28.26,18,34s23.16,1.44,34.68-1.74c4-1.11,14.1-12.12,15.1-15.52,3.79-12.91-.24-27.31,5.15-39.64,10.08-23.1,10.08-68.1.08-107.1C251.74,284.58,320.24,43.41,266.44,41.25Zm-21.2,377.16c-.81,6.26-.74,12.82-2,19-2.69,13.17-24.06,14.62-32,14-4.65-.36-11-1-19-14-3.28-5.32-13-22-6.61-40.7,14.12-41.32,40.37-21.35,47.05-13.94s8.55,16.12,11.56,25.64A25.51,25.51,0,0,1,245.24,418.41Z"/><path d="M267.73,40.49a3.38,3.38,0,0,0-1.91-1.64c-1.2-.48-4.44.34-5.74.45q-2.87.24-5.74.52-10.71,1-21.37,2.54c-14,2-28.95,3.6-42.34,8.17C180.56,54,174.33,61.67,171.94,72c-1.53,6.58-1.1,13.3-1.38,20-1.32,31.31-4.85,62.62-4.71,94,.06,13.6,1.89,27.33,3.14,40.86.83,9,1.7,18,2.79,26.92.72,5.93,2,11.83,2.22,17.81a177.92,177.92,0,0,1-.9,26.37c-1.14,9.43-2.87,18.48-2.89,28,0,10.52,1.07,21,2,31.46,1.19,13.91,1.77,27.86,3.47,41.72.93,7.55,2.91,15.27,3,22.86a40.69,40.69,0,0,0,11.9,28.51c8.18,8,18.33,9.32,29.27,7.14,5-1,11.26-1.91,15.68-4.56,3.49-2.09,6.48-5.37,9.12-8.42,1.85-2.14,3.82-4.43,4.83-7.1,2.16-5.71,1.87-12.76,2-18.74.14-6.52.25-13.15,2.52-19.34a120.73,120.73,0,0,0,4.63-14c5.49-23.21,4.36-48.19.88-71.6q-1.41-9.49-3.57-18.85c-.55-2.38-1.23-3.8-1.15-5.6a43.51,43.51,0,0,1,1.16-6c1.76-8.13,3.71-16.21,5.58-24.31,6.24-26.94,12.19-53.94,17.11-81.16,5.09-28.19,9.62-56.9,10-85.61.12-10.6-.25-21.5-2.85-31.83-1.7-6.73-4.6-14.13-10.64-18.11a17.11,17.11,0,0,0-8.64-2.71c-1.93-.1-1.92,2.9,0,3,16.65.87,18.33,25.57,18.93,37.71,1.32,26.43-2.44,53.19-6.64,79.21-4.38,27.16-10,54.12-16,81-3.53,15.66-8.13,31.35-10.68,47.21-.47,3,.3,4.91,1,8a242.89,242.89,0,0,1,5.72,39.07c1.41,21.85,0,43.14-7.65,63.74-4.34,11.75-.88,24.55-4.09,36.46-2,7.53-10.53,15-17.8,17-13.39,3.73-27,6.44-37.52-4.83a37.89,37.89,0,0,1-8.77-15.77c-1.16-4.21-.86-8.35-1.34-12.59-1-9.19-2.84-18.28-3.77-27.5-1.3-12.86-1.89-25.79-3-38.67-.85-9.78-1.74-19.59-1.55-29.42.18-8.92,2-17.48,2.94-26.31A200,200,0,0,0,177,272.5c-.12-5.7-1.28-11.2-2-16.84-2.14-16.83-3.54-33.76-4.95-50.67-2.3-27.55,0-55,1.72-82.58.74-12,1.89-24,1.91-36,0-10.21,1.14-21.74,9.66-28.7,5.6-4.58,13.26-5.77,20.15-7.18s13.82-2.69,20.77-3.81q11.17-1.8,22.42-3.07,4.77-.54,9.55-1c1.46-.14,8.34-1.43,8.88-.64C266.23,43.59,268.83,42.09,267.73,40.49Z"/><path d="M243.74,418.41c-1,8.44.73,20.22-6.85,25.94-5.31,4-12.67,5.23-19.15,5.59-4.68.26-9.81.31-14-2.09-6.29-3.62-10.41-10.79-13.53-17.17-8.13-16.66-6.41-38.2,7-51.86,7.62-7.76,17.82-6.94,26.51-1.51a35,35,0,0,1,10.62,10c3.11,4.65,4.9,9.95,6.54,15.25s3.33,10.25,2.85,15.82c-.17,1.92,2.83,1.91,3,0,.46-5.34-1-10-2.49-15.09-1.62-5.31-3.27-10.68-6.08-15.51a37.61,37.61,0,0,0-11.22-12c-9-6.28-20.56-8.54-29.65-1.15-7,5.68-11.24,14.89-13.68,23.36C180.7,408.23,182,419,186,428.67c3,7.31,7.44,15.17,13.76,20.1,4.48,3.49,9.65,4.29,15.19,4.25,7.94-.06,17-1.35,23.58-6.18,8.75-6.45,7-18.85,8.16-28.43C247,416.5,244,416.51,243.74,418.41Z"/><path class="cls-1" d="M170.69,362.86c-2.45-22.45-12.9-48.27-12.1-73,.27-8.51-6.76-37.11-9.78-43.12-6-11.93-5.79-25.92-5.43-39.28.79-29.62-2.93-59.42-2.14-89,.23-8.45-11.59-92.17-13-95-3-6-40.86-19.53-56.76-21.21A138.58,138.58,0,0,0,22.24,6.41c-5.88,0-13.9,18.19-13,24s1,12.48,1.36,18.35c.17,2.69-.27,5.41.05,8.09.61,4.92,5.27,8.17,7.58,12.56,5.47,10.38,5.11,23.33,6.58,35,5.21,41.37,28.42,76,33.94,119.77,1.92,15.19,15.25,28.22,12.51,43.29-1.15,6.34,3.95,46.93,7,53,8,16,15.44,29.46,16.57,31.32,1,1.62.79,3.64.91,5.53,2.51,37.14,25,50.95,28.51,51.14,13.16.75,23.67.31,32.53-9.44S172.12,376,170.69,362.86Zm-8.16,13c-.49,3.87-.07,7.88-1.17,11.62-2.28,7.84-10.51,12.45-18.47,14.27-4.79,1.1-11.9,3.93-16.66,2.71C116,401.78,110.16,388.29,109.56,386c-.31-1.19-1.83-1.71-2.36-2.83-1.07-2.24-4.43-19.77-4.64-23.09L101,335.91a5.8,5.8,0,0,1,.59-3.72c.83-1.2,9.81-3.69,17.67-1.79,0,0,17.82,13,22,15.18A102.65,102.65,0,0,1,159.1,357.4a14.7,14.7,0,0,1,3.59,3.83C165.16,365.54,163.15,370.88,162.53,375.81Z"/><path d="M172.19,362.86c-2.71-23.09-11.69-45.19-12.13-68.59-.27-14.16-3.28-28-7.47-41.52-2.54-8.21-6.34-15.56-7.31-24.27-1.34-12.08-.16-24.38-.36-36.51-.41-24.61-1.94-49.16-2.19-73.78-.08-8.42-1.61-17-2.67-25.29q-2.51-19.76-5.39-39.46c-1.37-9.43-2.49-19-4.48-28.33-1.59-7.46-12.78-10.5-18.91-13C97.49,6.53,82.62,1.44,67.67.36A132.6,132.6,0,0,0,21.76,5c-5.24,1.52-8.17,6.89-10.38,11.58a42.14,42.14,0,0,0-3.25,9.21c-.8,3.84,0,7.37.32,11.26.38,5,.73,10,.65,15-.07,4.51.3,7.81,3,11.55,3.1,4.29,5.8,7.74,7.38,12.92,1.79,5.9,2.35,12.06,2.89,18.17,1.86,21.1,7.48,40.81,14.73,60.65,7.46,20.44,15.51,40.78,19.18,62.33.81,4.76,1.2,9.52,2.73,14.12a127.07,127.07,0,0,0,5.82,13.49c2.09,4.48,4.18,9.13,5,14.05.57,3.51-.08,6.83-.2,10.32-.4,12.5,2,25.62,4.06,37.9.77,4.56,1.43,9.39,3.27,13.67,4,9.19,9.22,18.08,14.05,26.85,1.87,3.4,2.78,5.15,3.23,9.25a117.11,117.11,0,0,0,2.1,14.32A69,69,0,0,0,105.17,393c3.94,6.15,10.57,14.87,18.19,16.78,6.55,1.64,16,.62,22.32-1.6,8.62-3,14.76-10.17,19.4-17.78,5.06-8.31,7.94-17.77,7.11-27.53-.16-1.91-3.16-1.93-3,0,1,11.51-3.44,22.37-10.41,31.38-6.63,8.57-14.71,12.62-25.51,12.9-4.89.13-8.85.46-12.91-2.22a43.06,43.06,0,0,1-10.6-10.5,62.86,62.86,0,0,1-9.47-19.54,80.56,80.56,0,0,1-2.79-14.29c-.36-3.46,0-6.88-1.65-10-3.31-6.43-7-12.7-10.31-19.12-3.14-6-6.38-11.64-7.78-18.31a258.21,258.21,0,0,1-5-38.65c-.28-5.11.81-10.22.06-15.28-1.35-9.11-6.57-17-9.87-25.43-3.55-9.1-3.91-19.24-6.18-28.72a294.59,294.59,0,0,0-9.37-30.43c-6.71-18.76-14.39-37.28-18.69-56.8-2.29-10.39-2.8-20.87-4.15-31.39-1.07-8.36-3.22-15.83-8.38-22.54C14,61.08,12.27,58.93,12,55.24c-.13-2.15.13-4.32.06-6.48C11.92,43.18,11.63,37.55,11,32c-.79-6.64,2.18-13.51,5.78-19,2.76-4.22,5.55-5.17,10.09-6.24a139.29,139.29,0,0,1,24.6-3.52C68.35,2.32,83.69,5.51,99.58,11a152,152,0,0,1,20.21,8.24c2.74,1.4,6.43,3.18,7.3,5.66,1,2.73,1.12,6,1.58,8.83.8,4.91,1.54,9.83,2.27,14.75,3.29,22.22,7.11,44.67,8.68,67.09.47,6.72,0,13.53.11,20.28.25,12,1,23.89,1.5,35.83s.92,23.86.65,35.8c-.23,10-.49,20.18,1.94,30,1.67,6.72,5,12.87,6.89,19.55,1.94,6.85,3.59,13.8,4.91,20.79,1.39,7.38,1.16,14.41,1.7,21.86.77,10.66,3.05,21.14,5.48,31.52s5.14,21,6.4,31.72C169.41,364.75,172.42,364.77,172.19,362.86Z"/><path d="M161,375.81c-.45,4.68.05,9.67-2.25,13.94-2.12,3.93-5.92,6.59-9.91,8.38a70.18,70.18,0,0,1-10.32,3.18c-4.17,1.15-8.77,2.75-13.06,1.3-6.14-2.07-10.49-8.31-13.19-13.9-1.56-3.23-3.79-6-4.63-9.39-3.21-13.16-4.05-26.2-4.93-39.69-.12-1.78-.82-4.23.07-5.86s3-1.76,4.69-2.05c3.37-.59,8.4-1.17,11.54.39,3.75,1.86,7.24,5.22,10.67,7.62,4.55,3.19,9.12,6.13,14,8.87A93.91,93.91,0,0,1,158,358.47c5.65,4.79,4,10.43,3,16.95-.29,1.89,2.6,2.7,2.89.8.67-4.46,2.3-9.43.82-13.9-1.32-4-5.26-6.56-8.45-9-6.73-5.06-14.27-8.73-21.2-13.48-4.8-3.29-9.58-7.86-14.77-10.47-4.3-2.17-15.28-2.17-19.28,1.23-2.34,2-1.63,5.35-1.45,8.07.42,6.5.83,13,1.27,19.51a131.69,131.69,0,0,0,3.19,19.1c.47,2.14.76,4.63,1.78,6.6.69,1.33,1.91,2.35,2.62,3.68.51,1,.86,2,1.35,3,2.94,5.88,7.46,11.85,13.68,14.46,4.74,2,9.58.83,14.34-.46,4.58-1.24,9.3-2.23,13.57-4.38a23.05,23.05,0,0,0,9.58-8.39c2.93-4.92,2.45-10.55,3-16C164.22,373.89,161.22,373.9,161,375.81Z"/><text class="cls-2" transform="translate(0 230.96)">other i<tspan class="cls-3" x="191.44" y="0">t</tspan><tspan x="214.41" y="0">ems</tspan></text></g></g></svg>