<svg xmlns="http://www.w3.org/2000/svg" viewBox="0 0 409.22 700.19"><defs><style>.cls-1{fill:#66f270;}.cls-2{fill:#fff;}</style></defs><title>pants</title><g id="Layer_2" data-name="Layer 2"><g id="pants"><path class="cls-1" d="M68.06,3.76a1010.43,1010.43,0,0,0-52,287.13c-3,89.49,5.82,179.46-4.16,268.44C7,602.65,7.47,642.51,1.47,686.51c16-4,22.63,3,33,2,32-3,35.85,2.67,56,6,3.88-13.07,11.81-25.37,14-44,4-34,10.1-77.29,18.92-109.73,8.08-29.73,12.4-60.41,21.36-89.88,5.65-18.57,12.38-36.82,17.11-55.64,3.62-14.39,8.19-23.11,10.62-37.75,5-29.92,10-39,12.71-95.72,8.29,61.72,38.74,138.61,61.29,209.72,8,25.1,14.69,54.08,22.72,79.16C284,597,283.47,614.51,303.47,665.51c.55,1.41,10.93,29.93,12,31,4.8,4.79,11.63.22,13,0,27.44-4.43,35.56-5.57,63-10,2.42-.39,14.68-4.93,16-7,1-1.63-2.81-25.07-3-27-20.38-206.64-48-475-91-592-1.09-3-6-19-11-29-3.8-7.59-8-1-10-8-1.94-6.8-11-22-11-22s-31.53,11.19-38,12c-52.71,6.59-78,3-133.88.08C98.93,13,81.89,8.88,68.06,3.76Z"/><path class="cls-2" d="M66.61,3.36A1015.54,1015.54,0,0,0,16,261.45c-5.78,91,3.61,182.33-3.3,273.32-1.9,25-4.8,49.8-6.3,74.81-1.54,25.56-3,51.14-6.37,76.53A1.52,1.52,0,0,0,1.86,688c9.09-2.09,16.35,0,25.18,1.58,8.23,1.52,16.88-.49,25.22-.36,13.06.2,25.06,4.61,37.8,6.78a1.54,1.54,0,0,0,1.85-1c4-13.11,10.71-25.15,13.21-38.76,2.79-15.21,3.91-30.82,6.18-46.13,2.35-15.83,5-31.62,8.35-47.26,3.42-16,8-31.77,11.49-47.78,3.85-17.55,7.24-35.21,11.88-52.57s10.92-34.47,16.12-51.79c2.47-8.25,4.39-16.65,7-24.86,2.21-7,4.73-13.83,6.4-21,2.2-9.41,3.56-19.07,5.49-28.55,5-24.63,7.43-49.35,8.65-74.45l-2.95.4c6.83,49.89,23.9,98.1,40,145.6,8.52,25.18,17.4,50.3,24.87,75.82,7.37,25.15,14.06,50.45,21.68,75.53,5.69,18.72,10,37.79,15.06,56.67,5,18.39,11.54,36.12,18.13,54,2.37,6.42,4.74,12.84,7.21,19.22,1.71,4.4,2.71,9.68,8,10.95,3.67.89,6.49-.87,9.83-1.87,5.46-1.63,11.61-1.92,17.25-2.81,9.77-1.55,19.55-3.07,29.33-4.61,9.19-1.46,18.06-2.47,26.66-6.15,2-.86,5.92-2.08,7.07-4.23.8-1.5.34-3.8.2-5.39-.57-6.77-1.71-13.49-2.69-20.21-1.36-9.36-2-18.88-2.89-28.29q-7.06-71-14.72-142c-10.09-91.79-21.11-183.65-37.31-274.59-6.58-36.93-14-73.81-23.93-110-3.83-13.91-8.36-27.52-13-41.16-2.86-8.34-5.56-16.75-9.19-24.8-1.43-3.16-2.88-6.6-6.44-7.7-2.66-.83-3.09.45-4.85-3-.85-1.66-1.32-3.64-2.09-5.36a169.89,169.89,0,0,0-9.06-17,1.52,1.52,0,0,0-1.69-.69c-7.55,2.68-15.13,5.27-22.75,7.72-4.38,1.41-8.79,2.93-13.29,3.9-7.78,1.69-16.1,2-24,2.67-31.31,2.55-62.46.57-93.74-1.28-9.93-.58-19.91-.71-29.7-2.59a189.64,189.64,0,0,1-29.1-8.18c-1.82-.66-2.6,2.24-.8,2.89a170.82,170.82,0,0,0,49.62,10.3c17.32,1,34.63,2.21,52,2.85a437.13,437.13,0,0,0,46.2-.59c13-.9,26.18-1.68,38.72-5.53,9.31-2.86,18.52-6,27.7-9.29l-1.69-.69a158.41,158.41,0,0,1,9.29,17.51c1.09,2.52,1.5,6.17,3.81,7.93a7.18,7.18,0,0,0,2.77,1c3.64,1.07,4.69,2.52,6.28,6,6.52,14.14,11.22,29.65,15.91,44.51,10.19,32.23,17.54,65.36,24.07,98.5,17.07,86.63,28.21,174.43,38.34,262.1q8.13,70.33,15.15,140.79,3.34,32.92,6.58,65.85c.63,6.39,1.6,12.69,2.47,19.05.47,3.38.95,6.79,1.19,10.2s.17,3.36-2.9,4.9c-8.3,4.16-16.83,5.27-25.91,6.72-9.82,1.56-19.65,3.09-29.47,4.64l-15.9,2.53c-4.14.67-11.78,4.92-15.18,1.19-1.11-1.22-1.56-3.5-2.16-5-1.3-3.28-2.55-6.59-3.8-9.9-5.93-15.76-12.1-31.47-17.19-47.53-5.52-17.44-9.54-35.27-14.18-52.94-6-22.76-13.43-45.09-19.62-67.8-6.8-25-14.32-49.58-22.54-74.1-16-47.8-33.58-95.41-44.65-144.68-2.4-10.68-4.43-21.44-5.91-32.29-.24-1.74-2.87-1.2-2.95.4-1.13,23.22-3.07,46.3-7.63,69.12-1.64,8.21-3.36,16.4-4.77,24.65-2.52,14.71-8,28.65-11.85,43-4.65,17.51-10.89,34.55-16.14,51.88s-8.88,34.81-12.61,52.38c-6.77,31.83-15.43,63-20.57,95.21-2.66,16.65-4.89,33.38-6.88,50.12a104.25,104.25,0,0,1-6.32,25.3c-2.64,6.87-5.73,13.55-7.9,20.6l1.85-1c-13-2.21-25.26-6.68-38.6-6.89-9-.14-18.16,2-27-.09-8.33-1.95-15.69-3-24.19-1l1.85,1.85c5.86-43.62,6.27-87.75,10.91-131.5,4.83-45.5,4.83-91.33,4.15-137s-2-91.35-.05-137A1008.64,1008.64,0,0,1,69.5,4.16C70.12,2.32,67.22,1.54,66.61,3.36Z"/></g></g></svg>